<svg width="500" height="500" viewBox="0 0 500 500" fill="none" xmlns="http://www.w3.org/2000/svg">
<path fill-rule="evenodd" clip-rule="evenodd" d="M373.11 92.2984L50.6028 232.25C51.0096 227.694 51.5741 223.121 52.3007 218.535C55.0548 201.155 59.9706 184.654 66.7305 169.264L316.042 61.0754C337.013 68.4038 356.208 79.0478 373.11 92.2984Z" fill="#EBEBEB"/>
<path fill-rule="evenodd" clip-rule="evenodd" d="M441.369 192.1L76.8757 350.271C65.1439 330.095 56.8872 307.809 52.7796 284.34L409.586 129.504C423.689 148.23 434.511 169.409 441.369 192.1Z" fill="#F5F5F5"/>
<path fill-rule="evenodd" clip-rule="evenodd" d="M440.781 309.422C443.617 300.295 445.832 290.854 447.372 281.137C449.777 265.955 450.407 250.901 449.414 236.188L103.579 386.263C120.265 404.177 140.297 419.115 162.896 430.01L440.781 309.422Z" fill="#EBEBEB"/>
</svg>
